<!-- Generated by IcoMoon.io -->
<svg version="1.1" xmlns="http://www.w3.org/2000/svg" width="1024" height="1024" viewBox="0 0 1024 1024">
<title></title>
<g id="icomoon-ignore">
</g>
<path fill="#000" d="M412.324 48h-289.801c-41.1 0-74.523 33.429-74.523 74.513v289.828c0 41.089 33.429 74.513 74.523 74.513h289.801c41.1 0 74.523-33.429 74.523-74.523v-289.822c0-41.079-33.423-74.507-74.523-74.507zM412.324 450.28h-289.812c-20.93 0-37.95-17.014-37.95-37.945v-289.822c0-20.93 17.025-37.945 37.95-37.945h289.801c20.93 0 37.95 17.014 37.95 37.945v289.822h0.005c0 20.93-17.020 37.945-37.945 37.945z"></path>
<path fill="#000" d="M901.471 48h-289.801c-41.1 0-74.523 33.429-74.523 74.513v289.828c0 41.089 33.429 74.513 74.523 74.513h289.801c41.095 0 74.523-33.429 74.523-74.523v-289.822c0-41.079-33.429-74.507-74.523-74.507zM939.411 412.335c0 20.93-17.025 37.945-37.95 37.945h-289.801c-20.93 0-37.95-17.014-37.95-37.945v-289.822c0-20.93 17.025-37.945 37.95-37.945h289.801c20.93 0 37.95 17.014 37.95 37.945v289.822z"></path>
<path fill="#000" d="M412.324 537.147h-289.801c-41.089 0-74.523 33.429-74.523 74.513v289.828c0 41.089 33.429 74.513 74.523 74.513h289.801c41.1 0 74.523-33.429 74.523-74.523v-289.822c0-41.084-33.423-74.507-74.523-74.507zM412.324 939.427h-289.812c-20.93 0-37.95-17.014-37.95-37.945v-289.822c0-20.93 17.025-37.945 37.95-37.945h289.801c20.93 0 37.95 17.014 37.95 37.945v289.822h0.005c0 20.93-17.020 37.945-37.945 37.945z"></path>
<path fill="#000" d="M901.471 537.147h-289.801c-41.1 0-74.523 33.429-74.523 74.513v289.828c0 41.089 33.429 74.513 74.523 74.513h289.801c41.095 0 74.523-33.429 74.523-74.523v-289.822c0-41.084-33.429-74.507-74.523-74.507zM939.411 901.482c0 20.93-17.025 37.945-37.95 37.945h-289.801c-20.93 0-37.95-17.014-37.95-37.945v-289.822c0-20.93 17.025-37.945 37.95-37.945h289.801c20.93 0 37.95 17.014 37.95 37.945v289.822z"></path>
</svg>
