<?xml version="1.0" encoding="utf-8"?>
<!-- Svg Vector Icons : http://www.onlinewebfonts.com/icon -->
<!DOCTYPE svg PUBLIC "-//W3C//DTD SVG 1.1//EN" "http://www.w3.org/Graphics/SVG/1.1/DTD/svg11.dtd">
<svg version="1.1" xmlns="http://www.w3.org/2000/svg" xmlns:xlink="http://www.w3.org/1999/xlink" x="0px" y="0px" viewBox="0 0 1000 1000" enable-background="new 0 0 1000 1000" xml:space="preserve">
<metadata> Svg Vector Icons : http://www.onlinewebfonts.com/icon </metadata>
<g><g transform="translate(0.000000,511.000000) scale(0.100000,-0.100000)"><path d="M370.9,4454.6c-108.9-48.6-167.2-103.1-219.7-202.3l-42.8-77.8l-5.8-2946.2c-5.8-3276.8-13.6-3057.1,128.3-3193.2c38.9-38.9,103.1-85.6,140-105c66.1-35,219.8-37,4628.4-37h4560.4l79.7,42.8c105,56.4,213.9,180.8,239.2,272.3c15.6,50.6,21.4,997.6,21.4,3000.7v2926.8l-46.7,99.2c-52.5,112.8-155.6,206.1-262.5,239.2c-54.4,15.6-1266,21.4-4603.1,21.4C470.1,4495.4,458.4,4495.4,370.9,4454.6z M9452.7,1199.1v-2849H4999.3H545.9v2849v2849h4453.4h4453.4V1199.1z"/><path d="M3393-2921.7c-54.4-54.4-66.1-79.7-66.1-151.7c0-97.2,35-159.5,116.7-200.3c85.6-44.7,3026-44.7,3111.6,0c81.7,40.8,116.7,103.1,116.7,200.3c0,72-11.7,97.2-66.1,151.7l-66.1,66.1H4999.3H3459.1L3393-2921.7z"/><path d="M2025.8-3853.3c-157.5-79.7-169.2-301.4-21.4-388.9c50.6-31.1,283.9-33.1,2994.9-33.1c3253.5,0,3016.2-9.7,3082.4,128.3c40.8,87.5,19.5,188.6-60.3,262.5l-50.6,46.7l-2948.2,3.9C2704.6-3829.9,2062.8-3833.8,2025.8-3853.3z"/></g></g>
</svg>