<svg height="436pt" viewBox="0 -4 436.98935 436" width="436pt" xmlns="http://www.w3.org/2000/svg"><path d="m5.21875 398.519531c-6.9375 6.957031-6.960938 18.207031-.054688 25.191407.019532.019531.039063.039062.058594.058593 6.972656 6.96875 18.273438 6.96875 25.246094 0l67.613281-67.617187-25.246093-25.246094zm0 0"/><path d="m215.175781 188.566406-132.441406 132.4375 25.246094 25.25 132.441406-132.441406-5.988281-19.257812zm0 0"/><path d="m337.605469 131.148438 20.402343-60.171876-60.167968 20.402344c-4.050782 1.371094-8.519532.664063-11.949219-1.894531l-50.917969-38 .8125 63.527344c.054688 4.277343-2 8.308593-5.492187 10.78125l-51.875 36.683593 60.675781 18.863282c4.085938 1.269531 7.285156 4.46875 8.554688 8.554687l18.859374 60.667969 36.683594-51.871094c2.480469-3.484375 6.507813-5.535156 10.78125-5.492187l63.527344.8125-38-50.917969c-2.558594-3.429688-3.265625-7.894531-1.894531-11.945312zm0 0"/><path d="m109.625 84.714844 10.738281 2.960937-2.960937 10.738281c-1.03125 3.726563 1.160156 7.582032 4.886718 8.609376 3.726563 1.03125 7.582032-1.160157 8.613282-4.886719l2.960937-10.738281 10.738281 2.964843c3.726563 1.027344 7.582032-1.164062 8.609376-4.890625 1.027343-3.726562-1.160157-7.582031-4.886719-8.609375l-10.738281-2.964843 2.964843-10.734376c1.027344-3.730468-1.160156-7.585937-4.890625-8.613281-3.726562-1.027343-7.582031 1.160157-8.609375 4.886719l-2.964843 10.738281-10.738282-2.960937c-3.726562-1.027344-7.582031 1.160156-8.609375 4.890625-1.027343 3.726562 1.160157 7.582031 4.886719 8.609375zm0 0"/><path d="m362.546875 343.546875-5.964844-1.644531 1.644531-5.964844c1.03125-3.730469-1.160156-7.585938-4.886718-8.613281-3.726563-1.027344-7.582032 1.160156-8.613282 4.890625l-1.644531 5.964844-5.964843-1.648438c-3.726563-1.027344-7.582032 1.164062-8.613282 4.890625-1.027344 3.726563 1.160156 7.582031 4.890625 8.609375l5.964844 1.648438-1.644531 5.964843c-1.027344 3.726563 1.160156 7.582031 4.886718 8.609375 3.730469 1.03125 7.585938-1.160156 8.613282-4.886718l1.644531-5.964844 5.964844 1.644531c3.730469 1.027344 7.585937-1.160156 8.613281-4.886719 1.027344-3.730468-1.160156-7.585937-4.890625-8.613281zm0 0"/><path d="m431.84375 122.734375-10.261719-2.832031 2.832031-10.261719c1.027344-3.726563-1.160156-7.582031-4.890624-8.609375-3.726563-1.027344-7.582032 1.160156-8.609376 4.886719l-2.832031 10.261719-10.257812-2.832032c-3.726563-1.027344-7.582031 1.160156-8.613281 4.886719-1.027344 3.730469 1.160156 7.585937 4.890624 8.613281l10.261719 2.832032-2.832031 10.261718c-1.027344 3.726563 1.164062 7.582032 4.890625 8.609375 3.726563 1.027344 7.582031-1.160156 8.609375-4.886719l2.832031-10.265624 10.261719 2.832031c3.730469 1.027343 7.585938-1.160157 8.613281-4.886719 1.027344-3.730469-1.160156-7.585938-4.890625-8.613281zm0 0"/><path d="m285.820312 24.597656 7.542969 2.078125-2.082031 7.542969c-1.027344 3.726562 1.164062 7.582031 4.890625 8.609375 3.726563 1.03125 7.582031-1.160156 8.609375-4.886719l2.082031-7.542968 7.542969 2.082031c3.726562 1.027343 7.582031-1.160157 8.609375-4.890625 1.027344-3.726563-1.160156-7.582032-4.886719-8.609375l-7.542968-2.082031 2.082031-7.539063c1.027343-3.730469-1.160157-7.585937-4.890625-8.613281-3.726563-1.027344-7.582032 1.160156-8.609375 4.890625l-2.082031 7.539062-7.542969-2.078125c-3.726563-1.03125-7.582031 1.160156-8.609375 4.886719s1.160156 7.582031 4.886718 8.613281zm0 0"/></svg>