<?xml version="1.0" encoding="utf-8"?>
<!-- Svg Vector Icons : http://www.onlinewebfonts.com/icon -->
<!DOCTYPE svg PUBLIC "-//W3C//DTD SVG 1.1//EN" "http://www.w3.org/Graphics/SVG/1.1/DTD/svg11.dtd">
<svg version="1.1" xmlns="http://www.w3.org/2000/svg" xmlns:xlink="http://www.w3.org/1999/xlink" x="0px" y="0px" viewBox="0 0 1000 1000" enable-background="new 0 0 1000 1000" xml:space="preserve">
<metadata> Svg Vector Icons : http://www.onlinewebfonts.com/icon </metadata>
<g><g transform="translate(0.000000,512.000000) scale(0.100000,-0.100000)"><path d="M2580.1,4986.7c-516.7-109-935.7-507.1-1086.9-1031.4l-44-151.2V120.6V-3563l44-151.2c153.1-530,572.2-924.2,1098.4-1033.3c200.9-42.1,1555.7-44,1775.8-1.9c644.9,118.6,1576.8,304.3,1655.2,329.1c53.6,17.2,156.9,61.2,229.6,97.6c74.6,36.4,451.6,202.8,840.1,369.3c388.4,166.5,753.9,334.9,813.3,373.1c453.5,302.4,704.2,838.1,633.4,1360.5c-11.5,91.8-38.3,220.1-61.2,283.2c-49.7,147.4-3138.2,6247.7-3220.5,6362.5c-206.7,283.2-530.1,491.8-874.5,562.6C4174.1,5030.8,2781.1,5030.8,2580.1,4986.7z M4407.6,4563.8c325.3-107.1,574.1-369.3,675.5-709.9c26.8-93.8,30.6-449.7,30.6-3723.8c0-3142-3.8-3631.9-28.7-3727.6c-89.9-344.4-350.2-620-687-727.1c-132-40.2-160.7-42.1-910.8-42.1c-746.3,0-780.7,1.9-908.9,42.1c-333,105.2-600.8,382.7-688.9,715.6c-24.9,88-28.7,648.7-28.7,3735.2v3631.9l47.8,143.5c128.2,380.8,430.5,637.2,820.9,696.5c53.6,9.6,424.8,13.4,824.7,11.5C4244.9,4606,4287,4604,4407.6,4563.8z M7061.7-3.8c621.9-1228.5,1027.6-2055.1,1046.7-2124c38.3-147.4,36.3-396.1-1.9-528.1c-78.5-264.1-273.7-512.9-486.1-620c-133.9-68.9-673.6-298.5-681.2-292.8c-1.9,3.8,11.5,63.1,30.6,134c49.7,179.9,65.1,399.9,38.3,560.7c-11.5,74.6-269.8,1257.2-576,2631.1c-304.3,1373.9-556.9,2518.2-562.6,2545C5852.3,2378.6,5990.1,2114.5,7061.7-3.8z M6606.2-3065.4c0-285.1-91.8-501.4-296.6-708c-179.9-181.8-308.1-243-669.7-315.7c-156.9-32.5-298.5-57.4-315.7-57.4c-26.8,0-21,24.9,42.1,141.6c40.2,78.4,91.8,210.5,116.7,292.8l42.1,149.2l5.8,2726.8l7.7,2726.8l533.9-2401.5C6527.8-2560.3,6606.2-2935.3,6606.2-3065.4z"/><path d="M3358.9,4406.9c-166.5-34.4-336.8-170.3-422.9-334.9c-42.1-80.4-49.8-120.5-51.7-258.3c0-139.7,7.7-178,53.6-271.7c57.4-118.6,158.8-220.1,285.1-287c68.9-36.4,111-44,264.1-44s195.2,7.7,264.1,44c126.3,67,227.7,168.4,285.1,287c72.7,147.3,74.6,363.6,7.7,514.8c-51.7,116.7-197.1,260.2-313.8,311.9C3630.7,4412.7,3466.1,4429.9,3358.9,4406.9z M3607.7,3966.8c72.7-57.4,99.5-153.1,63.2-235.4c-28.7-70.8-112.9-128.2-183.7-128.2c-118.6,0-225.8,134-200.9,250.7C3314.9,3984.1,3500.6,4051,3607.7,3966.8z"/><path d="M2360.1,2945c-93.8-51.7-95.7-70.8-97.6-792.2v-677.4l65.1-65.1l65.1-65.1l1102.2,3.8l1102.2,5.7l51.7,53.6l53.6,51.7l5.7,675.5c5.7,597,1.9,681.2-24.9,732.9c-17.2,34.4-53.6,70.8-78.5,82.3C4530,2983.3,2421.3,2979.4,2360.1,2945z M4306.1,2164.3l-5.7-407.6h-813.3h-813.3l-5.7,407.6l-3.8,405.7h822.8H4310L4306.1,2164.3z"/><path d="M2360.1,495.7c-93.8-51.7-95.7-70.8-97.6-792.2V-974l65.1-65l65.1-65.1l1102.2,3.8l1102.2,5.7l51.7,53.6l53.6,51.7l5.7,675.5c5.7,597,1.9,681.2-24.9,732.9c-17.2,34.4-53.6,70.8-78.5,82.3C4530,533.9,2421.3,530.1,2360.1,495.7z M4306.1-285.1l-5.7-407.6h-813.3h-813.3l-5.7,407.6l-3.8,405.7h822.8H4310L4306.1-285.1z"/><path d="M2346.7-1961.3c-82.3-65.1-84.2-89.9-84.2-788.4v-673.6l65.1-65l65.1-65.1h1092.6h1092.6l61.2,55.5l63.1,55.5l5.7,677.4c5.7,598.9,1.9,683.1-24.9,734.8c-17.2,34.4-53.6,70.8-78.5,82.3c-34.4,15.3-373.1,21-1132.8,21C2473-1926.9,2383-1930.7,2346.7-1961.3z M4306.1-2734.4l-5.7-407.6h-813.3h-813.3l-5.7,407.6l-3.8,405.7h822.8H4310L4306.1-2734.4z"/></g></g>
</svg>